# xmcd
#
# Track frame offsets:
#	150
#	13741
#	28299
#	41315
#	56523
#	70492
#	84007
#	95564
#	108767
#	120931
#	132432
#	144170
#	158329
#	167957
#	182307
#	197444
#	212773
#	222398
#
# Disc length: 3151 seconds
#
# Revision: 1
# Processed by: cddbd v1.5.1PL0 Copyright (c) Steve Scherf et al.
# Submitted via: audiograbber 1.83.01
#
DISCID=e80c4d12
DTITLE=Muddy Waters - Ultimate Jazz and Blues
DYEAR=1900
DGENRE=
TTITLE0=Take a walk with me
TTITLE1=Streamline woman
TTITLE2=Louisiana blues
TTITLE3=You're gonna miss me when i'm gone
TTITLE4=I be's troubled
TTITLE5=Rollin' and tumblin'
TTITLE6=Gypsy woman
TTITLE7=Walkin' blues
TTITLE8=I can't be satisfied
TTITLE9=Little Anna mea
TTITLE10=You gonna miss me
TTITLE11=I feel like going home
TTITLE12=Why don't you live so god can use you
TTITLE13=Burr Clover blues
TTITLE14=32-20 blues
TTITLE15=Country blues
TTITLE16=You got to take sick and die some these days
TTITLE17=Rolling stone
EXTD=
EXTT0=
EXTT1=
EXTT2=
EXTT3=
EXTT4=
EXTT5=
EXTT6=
EXTT7=
EXTT8=
EXTT9=
EXTT10=
EXTT11=
EXTT12=
EXTT13=
EXTT14=
EXTT15=
EXTT16=
EXTT17=
PLAYORDER=
